/* XPM */
static char *_24ed26fb4d84decf15309d80d85a8b0RlWvpBBgqMGsw8VP[] = {
/* columns rows colors chars-per-pixel */
"50 50 141 2 ",
"   c black",
".  c #0B0600",
"X  c #150C01",
"o  c #1A1409",
"O  c #201201",
"+  c #2B1902",
"@  c #3F2402",
"#  c #322812",
"$  c #5A3302",
"%  c #4A3B1B",
"&  c #613803",
"*  c #5E4A1D",
"=  c #6F4004",
"-  c #734104",
";  c #7C4704",
":  c #814804",
">  c #8B4F04",
",  c #975604",
"<  c #9B5804",
"1  c #A45D04",
"2  c #AA5C03",
"3  c #B15700",
"4  c #B45C01",
"5  c #A76005",
"6  c #AA6105",
"7  c #BA6504",
"8  c #BB6D07",
"9  c #AD741D",
"0  c #83692E",
"q  c #8B723B",
"w  c #C16D06",
"e  c #C47508",
"r  c #C77809",
"t  c #CD7D0A",
"y  c #C67C10",
"u  c #CC7D12",
"i  c #C57A1D",
"p  c #D88D0D",
"a  c #CE8015",
"s  c #D18515",
"d  c #D58B19",
"f  c #D88E1B",
"g  c #D99215",
"h  c #DE9A1C",
"j  c #E49A0D",
"k  c #E39D13",
"l  c #E9A112",
"z  c #E5A31D",
"x  c #ECAB1C",
"c  c #CA8426",
"v  c #D69222",
"b  c #D99222",
"n  c #DF9B22",
"m  c #D2942A",
"M  c #DD9B2A",
"N  c #D39737",
"B  c #D9A43B",
"V  c #E4A325",
"C  c #ECAE22",
"Z  c #E5A529",
"A  c #ECAE2C",
"S  c #EEB223",
"D  c #EDB12D",
"F  c #F1B526",
"G  c #F4BC26",
"H  c #F2B728",
"J  c #F2B829",
"K  c #E5A531",
"L  c #E9AC35",
"P  c #E3AC3D",
"I  c #EBAF39",
"U  c #EEB332",
"Y  c #EFB53D",
"T  c #F5BF34",
"R  c #F4BE3C",
"E  c #F7C124",
"W  c #F9C326",
"Q  c #F7C12B",
"!  c #FAC62C",
"~  c #F9C82F",
"^  c #F5C235",
"/  c #FBC731",
"(  c #FBC933",
")  c #F6C43A",
"_  c #F8C73C",
"`  c #FCCB3C",
"'  c #B69543",
"]  c #C8A64C",
"[  c #CBA94C",
"{  c #DEA943",
"}  c #DEB34D",
"|  c #D7B455",
" . c #DAB755",
".. c #E7B446",
"X. c #EBBC4F",
"o. c #F2BA41",
"O. c #EABE55",
"+. c #F5C343",
"@. c #F8C442",
"#. c #FDCC44",
"$. c #F8C449",
"%. c #F7CB4B",
"&. c #FECD4C",
"*. c #FCD249",
"=. c #EEC557",
"-. c #E4C25D",
";. c #ECC45E",
":. c #FFCF51",
">. c #F3CB5E",
",. c #FDD355",
"<. c #FED952",
"1. c #FBD35C",
"2. c #EFD26E",
"3. c #F5D265",
"4. c #F9D662",
"5. c #FDD661",
"6. c #F9D565",
"7. c #F9D866",
"8. c #FBDB66",
"9. c #F2D168",
"0. c #F5D469",
"q. c #F2D56D",
"w. c #F6D76E",
"e. c #F7D86F",
"r. c #F7D96F",
"t. c #FBD96A",
"y. c #F8D86D",
"u. c #FCDB6C",
"i. c #F7DA72",
"p. c #F9DA70",
"a. c #FFD872",
"s. c #F9DE75",
"d. c #FBE077",
"f. c #FBE27B",
"g. c #F8D787",
"h. c #F9DC94",
"j. c #FFE49D",
"k. c #FEEFBD",
"l. c #F3E8CA",
"z. c #FFFCF4",
"x. c white",
/* pixels */
"                                                                                                    ",
"                                                                                                    ",
"                                                                                                    ",
"                                                                                                    ",
"                                    q l.h.6.6.>.1.6.6.0...9 ; @                                     ",
"                              o [ 6.1.j.a.,.:.:.:.:.:.:.:.:.0.{ 6 & X                               ",
"                            ' 5.,.:.:.:.:.:.:.:.:.:.:.:.:.:.:.:.t.m 6 &                             ",
"                        o 9.:.:.:.:.:.:.:.:.:.&.:.:.:.:.:.:.:.:.,.1.X.8 , .                         ",
"                      % 6.:.:.:.:.:.$.L b u s d d d d b I &.:.:.:.:.:.3.r 1 o                       ",
"                    * 5.:.:.:.:.$.M u n U :.:.:.:.:.,.$.U f K &.:.&.:.:.s.u 6 +                     ",
"                  o u.:.:.:.:.L u V &.:.,.:.:.:.:.:.:.:.:.:.R v o.,.:.,.:.>.r 2 .                   ",
"                  y.:.:.:.:.M s @.:.:.:.:.:.:.:.:.:.:.:.:.:.:.:.Z I :.&.&.*.X.e <                   ",
"                [ :.:.:.:.b d &.:.:.:.:.:.:.:.:.:.:.:.:.:.&.&.#.#.D U #.#.#.<.n 8 =                 ",
"              # 1.:.:.:.M d &.:.:.:.:.:.:.:.:.:.:.:.:.&.&.&.#.#.` ` D U ` ` ` u.a 6 X               ",
"              -.,.:.:.Y u $.,.:.:.:.:.:.:.:.&.,.:.&.&.#.#.#.` ` ` ( ( V ^ ( ~ ` P e >               ",
"            # 1.:.:.&.u L &.&.:.:.:.:.:.:.:.:.&.&.&.#.#.` ` ` ` ( ( ( ! h ! ! ! 7.a 6 X             ",
"             .:.:.:.K f :.:.:.:.:.:.:.:.*.:.&.&.#.` ` ` ` ( ( ( ( ! ! ! H F ! W *.M 8 ;             ",
"            6.:.:.:.u R :.:.:.:.:.:.:.:.&.#.#.` ` ` ` ( ( ( ! ~ ( W W W E h W W ( >.a 5             ",
"          % :.:.:.L s :.:.:.:.:.:.&.&.#.#.` ` ` ` ( ( ( ! ! ! ! W W W W E x S J G f.a 8 O           ",
"          [ :.:.:.v Z :.:.:.*.&.&.#.#.` ` ` ` ( ( ( ~ ! ! ! ! W W W E E E E z J H 1.h 8 =           ",
"          3.:.:.:.u R :.*.&.&.#.#.` ` ` ` ( ( ( ~ ! ! ! W ! W W E G G G G H h J J %.Y r ,           ",
"          6.:.:.o.u &.&.&.#.#.` ` ` ( ( ( ( ~ ! ! ! W Q G G J J J J G J J J z J J ) =.r 5           ",
"          5.:.:.L s &.#.#.` ` ` ( ( ( ( ! ! ! Q G J J J J J J J J J J J J J C F J J q.a 5           ",
"          1.&.&.V d #.` ` ( ` ( ( ( ! Q G J J J J J H H G J J J J J J J J J C C J J i.a 5           ",
"          *.#.#.V f ` ` ( ( ( ( G J J J J J J J J J H H H J J J J J J J J J F C J J r.t 8           ",
"          *.` ` V g ( ( ( G J J J J J J J J J J J J H G J J J H J J J J F J F C J J w.w 7           ",
"          ,.` ( z g ! J J J J J J J F J J J J J J J J J H J J J J J J J J J C x J J w.w 2           ",
"          1.J H z g J J J J J J J J J J J J J J J J J J J J J J J J J J J J F F J J w.8 2           ",
"          i.J J C p J J J J J J J J J J J J J J J J J J J J J J J J J F J J x J J ) O.7 2           ",
"          q.J J J p C J J J J J J J J J J J J J J J J J J J J H J J J J J F x J J %.{ 7 <           ",
"          [ %.J J k z J J J J J J J J J J J J J J J J J J H J J J J J J J J x J J 6.i 4 -           ",
"          % 4.J J x j J J J H J J J J H J J J J J J J J J J J J J J J J F S F J J s.7 4 O           ",
"            s.J J F j x J J J J J J J J J J J J J J J J J J J J J J J J J x J J ) ;.4 2             ",
"            | %.J J x l J J J J J J J J J J J J J J J J J J J J J J J J T J J J 6.c 4 :             ",
"            # s.J J F j x J H J J J J J J J J J J J J J J J J J J J J J _ J F T s.3 2 X             ",
"              -.+.J J S l F J J J J J J J J J J J J J J S J J J J J J ) J J J 1.N 3 >               ",
"              # d.H J J x x F G J J J J J J J J J J J J J J J J J J ) ^ J J T i.3 4 X               ",
"                ] 1.J J J T ^ J J J J J H J J J J J S J J J J J J ) ) J J J s.i 3 -                 ",
"                  q.+.D J J _ #.J J J J J J J H J J J J J J J J _ ) G J J 1.} 2 1                   ",
"                  o f.) J J J _ <.#.J J J J H H J J J J J J ^ *.^ J J J %.>.e 5 .                   ",
"                    * f._ D H G J *.<.#._ J H g.h.h.h.) _ *.#.J J J J %.s.u 6 +                     ",
"                      % s.%.J J J J J _ *.<.s.z.x.x.k.1.) J J J J J 1.9.y 1 O                       ",
"                        o 2.4.J J J J J J J J J +.+.J J J J J J T s.X.8 , .                         ",
"                            ' f.%.J J J J J J J J D J J J J J 1.s.m 6 $                             ",
"                              o ] s.4.+.J J J J J J J J %.7.s.B 1 = .                               ",
"                                    0 | q.r.i.3.0.i.i.i.} 9 ; @                                     ",
"                                                                                                    ",
"                                                                                                    ",
"                                                                                                    ",
"                                                                                                    "
};
