/* XPM */
static char *_0eeaca6f8a9447ea0e8ebc1a43e7b7075khuOzohGygmwt7[] = {
/* columns rows colors chars-per-pixel */
"50 50 119 2 ",
"   c #000000",
".  c #080807",
"X  c #060608",
"o  c #070808",
"O  c #0B0B0B",
"+  c #0E0F12",
"@  c #0F1013",
"#  c #141414",
"$  c #16171B",
"%  c #17191C",
"&  c #1B1B1B",
"*  c #1C1D23",
"=  c #1E212A",
"-  c #232325",
";  c #252729",
":  c #27292A",
">  c #2A2B2C",
",  c #262A34",
"<  c #2D2E32",
"1  c #2B2F3B",
"2  c #2C303C",
"3  c #323234",
"4  c #35373A",
"5  c #36383B",
"6  c #3B3C3F",
"7  c #313542",
"8  c #393E4D",
"9  c #3D4353",
"0  c #414143",
"q  c #454649",
"w  c #4B4B4D",
"e  c #4D4F53",
"r  c #4D5054",
"t  c #525255",
"y  c #56575A",
"u  c #56595D",
"i  c #5A5B5F",
"p  c #4A4F63",
"a  c #4B5266",
"s  c #4D5468",
"d  c #5A5C60",
"f  c #555C73",
"g  c #596077",
"h  c #5B637B",
"j  c #626266",
"k  c #616368",
"l  c #6A6A6E",
"z  c #686C71",
"x  c #6E7277",
"c  c #737579",
"v  c #74797E",
"b  c #79797D",
"n  c #5F6781",
"m  c #616983",
"M  c #656D89",
"N  c #67708B",
"B  c #777B81",
"V  c #7B7E83",
"C  c #6C7592",
"Z  c #7C8087",
"A  c #7F838A",
"S  c #7882A2",
"D  c #7F89AC",
"F  c #818185",
"G  c #89898E",
"H  c #868A91",
"J  c #8E8E93",
"K  c #8B9097",
"L  c #8C9198",
"P  c #929297",
"I  c #92979E",
"U  c #98989E",
"Y  c #818BAE",
"T  c #959AA2",
"R  c #9E9EA3",
"E  c #838EB1",
"W  c #8591B4",
"Q  c #8893B7",
"!  c #8A95BA",
"~  c #8D99BF",
"^  c #9EA3AB",
"/  c #A4A5AB",
"(  c #A1A7B0",
")  c #A5ABB3",
"_  c #ABACB2",
"`  c #ADB2BB",
"'  c #B2B4BA",
"]  c #8E9BC1",
"[  c #919DC4",
"{  c #93A0C7",
"}  c #99A6CF",
"|  c #9BA8D2",
" . c #B4B9C2",
".. c #BFBFC5",
"X. c #A2B0DB",
"o. c #BBC1CA",
"O. c #C2C3CA",
"+. c #C0C6D0",
"@. c #C5CBD5",
"#. c #CCCCD3",
"$. c #C8CFD9",
"%. c #CCD3DD",
"&. c #D4D4DA",
"*. c #CFD6E0",
"=. c #D0D7E1",
"-. c #D3DBE5",
";. c #DDDDE4",
":. c #D7DFE9",
">. c #DBE2ED",
",. c #DEE6F1",
"<. c #E0E0E7",
"1. c #E7E7EF",
"2. c #E1E9F3",
"3. c #EBEBF3",
"4. c #E6EEF9",
"5. c #EBF3FD",
"6. c #F3F3FC",
"7. c #F5FDFF",
"8. c #FBFBFF",
/* pixels */
"                                    . . # + + # + + + # . & O O                                     ",
"                                & # X                         . & #                                 ",
"                            # #       3 b _ #.<.3.1.&.O.R j *       & #                             ",
"                          &     # J 3.8.6.6.3.8.' 1.6.3.6.6.8.;.l       &                           ",
"                        #   . / 8.6.3.1.1.1.8.j     &.6.1.1.1.3.6.6.l   + X                         ",
"                        O   U 8.1.1.1.1.1.8.t         ..3.1.1.1.1.3.8.+                             ",
"                        #   : 8.3.1.1.1.6.z             <.3.1.1.1.6./   #                           ",
"                      + #     V 6.1.1.1.3./ * _   0 G > 1.3.1.1.3.6.      &                         ",
"                    # .   #     <.3.1.1.1.6.8.O.  4 8.8.3.1.1.1.8.q   #     &                       ",
"                  &     q 5.d   * 8.3.1.1.1.3.O.  > 8.1.1.1.1.6./     :._     # X                   ",
"                #     d 2.*.:.+   F 8.1.1.1.1.3.i ' 3.1.1.1.3.6.    H >.>.o.X   &                   ",
"              O O     I -.%.-.'     &.6.3.8.8.6.6.6.8.8.6.3.8.q   < 4.%.%.-.%.    &                 ",
"              #       L -.%.%.,.u   ; 8./ q +         : c <._     %.%.-.,.>.2. .    #               ",
"            &   $ d   T :.%.%.*.>.&                             I >.-.Z < < K 5.H   O .             ",
"          O .   o.u   : -.*.%.-.$.-       X E ~ ! ~ ! s         H ,.2.#       H 7.5   &             ",
"          &   q 4.@.O   z :.-.+.    X N   X [ E E E ! m   1 8     y 4.$.) v     $ #   . .           ",
"        . X   %.*.>.Z   d ,.@.    = [ !   X [ E E E ! h   2 | m     k ,.-.2.A           &           ",
"        &   6 ,.*.*. .o ( 5.&   = ~ W W   X [ Y E E ! h   2 ~ ~ m     ^ -.%.:.@.+.@.`   O           ",
"        O   ( -.%.%.*.,.,.v     ] W E W   X [ E E E Q m   1 ] E ] s     >.%.%.*.=.=.4.-   #         ",
"      X .   I >.>.-.%.%.-.    M ! E E W   X [ E E E Q h   1 ~ E E [ @   V >.%.%.:.>.$.4   &         ",
"      &         e ` ,.2.L   % ] E E W W   X [ E E E Q n   1 ~ E E Q M   # 2.,.%.A ;       O         ",
"      .   0 <       O V 4   f ! E E E E   X [ E E E Q n   1 ~ E E E ! X   L 6         j   & X       ",
"      &   R 8.&.b O         Y W E E E W   X [ E E E ! h   1 ~ E E E ~ 1         6 _ 6.8.X           ",
"      *   ' 6.3.6.8.#.t     ~ E E E E W   X [ Y E E ! h   1 ~ E E E ! a   $ P 6.8.3.3.8.&   #       ",
"      &   O.3.1.1.1.6.1.  O ~ E E E E W   X [ E E E Q n   1 ~ E E E ! f   j 8.3.1.1.1.8.:   &       ",
"      &   O.3.1.1.1.3.&.  + ! E E E E W   X [ E E E ! h   1 ~ E E E Q h   y 6.1.1.1.1.8.<   &       ",
"      &   O.3.3.1.1.3.&.  + ~ E E E E W   X [ E E E W n   1 ~ E E E Q g   y 8.1.1.1.3.6.O   .       ",
"      &   O.3.1.1.1.3.&.  + ! E E E ! D   X [ W E E ! h   , ~ E E E Q g   y 6.3.1.1.6.P   #         ",
"      &   O.3.1.1.1.3.&.  + ~ E E W C         E W E W D ; M W E Y E ! g   y 8.1.1.1.8.0   O         ",
"      &   O.3.1.1.1.3.&.  @ ! E E [ X   1 *   2 ] E E E ~ W E E E E Q g   u 6.1.1.1.8.w   #         ",
"      &   O.3.3.1.1.3.&.  + ! E W D     X.W   X ] E E E ! W E E E E ! g   y 8.1.1.1.3.'   #         ",
"      &   O.3.1.1.1.3.&.  + ~ W W X     7 =     * ] E E p S E E E E ! g   y 6.1.1.1.3.6.O   O       ",
"      &   O.3.3.1.1.3.&.  + ~ ! 9   %       O O   M ~ m   1 ~ E E E W g   y 8.1.3.1.1.8.3   &       ",
"      &   #.8.6.6.6.8.<.  + ! [ +   S D s f ~ f   7 ] E s S E E E E Q g   d 8.6.6.6.6.8.3   &       ",
"      &   j b c c c b l   + ~ [     W W ! Q ~ M   , ~ E ! E E E E E Q h   > Z c b c c F #   &       ",
"      -                   + ! [ *   n ] E E ] 8   9 ~ W W ! E E E E W h                     &       ",
"      O   0 B x x c c l   + ~ Q f     C { [ f     D ! C   9 ! E E E Q g   , v x x x x V $   &       ",
"      &   r 4.>.>.:.>.@.  + ~ E ] 1     X       p ~ Q h   1 ~ E E E Q g   t 4.>.>.:.>.5.>   &       ",
"      #   $ 2.%.%.%.=.o.  + ! E W [ r X     + m ~ E W n   1 ~ E E E Q g   r >.%.%.%.%.2.:   &       ",
"        O   &.*.%.%.=.o.  + ~ E D D ] ~   X } ! E E Q n   1 ~ E E E Q h   r >.%.%.-.=.,.:   &       ",
"      X #   $.%.%.%.=.o.  + ~ E E E E W   X [ Y E E ! h   1 ~ E E E Q h   e >.%.>.x ^ 4.:   &       ",
"      #   $ ,.%.%.%.*.o.  + ~ Y E E E W   X [ E E E Q n   1 ~ E E E Q f   e >.*.@.  O 7.:   &       ",
"      &   Z >.%.%.%.*.o.  + ! E E E E E   X [ E E E Q n   1 ~ E E E Q h   e >.*.O.  # 8.:   &       ",
"      &   ` =.%.%.$.*.o.  + ~ E E E W W   X [ E E E ! h   1 ~ E E E Q g   e >.*.$.    z :   &       ",
"      &   ` =.%.%.%.=.o.  + ~ Y E E W W   X [ E E E Q h   1 ] E E E Q h   e >.%.>.x         &       ",
"      &   ` =.%.%.%.=.o.  + ~ E E E E W   X [ E E E Q n   1 ~ E E E Q f   e >.%.%.>.@.;     &       ",
"      &   ` -.=.%.%.-.o.  + ~ E E E W W   X [ W E E ~ n   1 ] E W W ! h   r ,.&.%.%.-.5.;   $       ",
"  # # -   ` -.%.%.%.=.o.  # ! E E E W W   X [ E E E ! h   1 ~ E D D Q h   r ,.%.%.%.%.2.:   : # &   ",
"#                                                               X                                 . ",
"# . . . . . . X X X X X X X . . X . . . . . O . X . . . .   X X     X X   X   X   X . .   X   X X   "
};
