/* XPM */
static char *e1375d4e0de746daed14df801373766caiwjVJvnP4GxA1wm[] = {
/* columns rows colors chars-per-pixel */
"50 50 79 1 ",
"  c #1C1611",
". c #1E1913",
"X c #231B16",
"o c #261E18",
"O c #291F1A",
"+ c #27201A",
"@ c #2B211B",
"# c #31251E",
"$ c #2E2620",
"% c #332721",
"& c #352923",
"* c #3B2C26",
"= c #372D28",
"- c #3E2E28",
"; c #3E312A",
": c #402F27",
"> c #402F29",
", c #45332D",
"< c #49352E",
"1 c #463730",
"2 c #4C3730",
"3 c #463933",
"4 c #4E3932",
"5 c #4D3F38",
"6 c #503831",
"7 c #503932",
"8 c #513A32",
"9 c #523A33",
"0 c #533B33",
"q c #513B34",
"w c #533C34",
"e c #543C34",
"r c #553D34",
"t c #573D35",
"y c #573E35",
"u c #543E37",
"i c #583E35",
"p c #583E36",
"a c #583F36",
"s c #593F37",
"d c #503F38",
"f c #4E4139",
"g c #564037",
"h c #5A4037",
"j c #524139",
"k c #52413A",
"l c #51423A",
"z c #53423B",
"x c #574038",
"c c #54413A",
"v c #55433C",
"b c #56433C",
"n c #53453E",
"m c #59423A",
"M c #5A423A",
"N c #5B423A",
"B c #5C433B",
"V c #5C433C",
"C c #5A443C",
"Z c #5C453D",
"A c #5D453D",
"S c #5F483F",
"D c #60453B",
"F c #60463D",
"G c #554741",
"H c #5C4740",
"J c #5B4840",
"K c #5F4940",
"L c #5C4A42",
"P c #5F4F47",
"I c #604A41",
"U c #634B42",
"Y c #634F47",
"T c #644D45",
"R c #675148",
"E c #6B544B",
"W c #6D574E",
"Q c #6F5950",
"! c #6F5C53",
/* pixels */
"WQQQWPQlnETTTTTRRW4nlAULy;RALZJLZfngn5LAn3SnNl4nf4",
"yyyyq,yLfypppyi7<747yppyq%7qyyp04,244w><7#4<<72247",
"yy72<;,2;yyyr7i7<,<,77774+;2q772<,<<<<7-,@74<74744",
"472<,,,,*y474444<,,<-<774%<*-<><*,,,,,<,<@47,77422",
"yq<<<,<%*q77474<,,,*,>*4q$2,<*,*,,,,,,,,*o<4<<442<",
"02<<<,,%;777<<<<,,>>,,,>-@,,<#*,,,,,,,,<<o6<<<<742",
"<<<,,,<*&2<,,,,,**&:,,,,*@,,,,&<,,,,,,,,,o;<-,,<<<",
"2><,<,2*#<<<<<,$<<<-<<,<<@<,,<-,<,<,,,<<<o<1<<><,<",
"O&&*&&&@o*&&**+*&&*@**&*&.*&**#&&**---,--+-<<<-<,-",
"24<,<<<,3;;,%$,;@X;,&*,**1,*;#;,&X&%-<;,,3,<#+,3<*",
"DDAADDDBxNhCwShg2;AN5DVHVZNNA4LBy*IggZCNCChD#YANxy",
"NNNNNhhyyrrgh,r4*%y7qyqyyyqyp*yy2%ND<hrrrri-jiyyyy",
"6yyupyy7wy4gyy<<*@quyy42q747;774,@ghyhyyrrr-y7y7yq",
"77<<,,<744<74474O=qyr222<<<<*<,-*@57<<<<6<6&-<<<44",
"<<2444<<<,<7747<%=4q42>,<-,,<<>*&+42,,:,,,,,,&,,<<",
"244447774&,7446<%&q42>2,,,,,**,*,X2,-,,,,,,,,,><,,",
",<<<<,<<,2%222<<*@212,,2,,,>,2,*,X<<#-,,,,,,,,,:,,",
">>>**,>**>#>>>*-*X>*>>*>>*,*>*&,-.*,@,&,>>-,-,:&>>",
"@@O@@@oXXO@X@O@@X @@OO@O@oXOOOOO+ @@+Xo++XX@+@oo@O",
"l555*5<+;f5543&53G;45552;@55<lllfl-5ll<;*@f<;wjl5>",
"yyyp77p&npqyyy2yuq,py0yq4&NpqyppgyN4hyr7<%xN,ggrpp",
"yyyqqq,#2qy4774<qq<q7y7y<@474qpq7yr7474y1+4w7<070q",
"ypq7yy7#1247444<4<447qyq<+-<47440474y<,7<+<47<4674",
"qy7<472%;222<2<-<>222222<Xf4<774717442,<4+<44<:744",
"42,,<2,O&31<1<,2,#22<<<<,+<<2,,<,<<<<4<<1o,222*,22",
"47,,,,>X&<<<2*2,<3-,<<4<-X,,<*,,,,,,<<<4,X,,2-;2>>",
"<<,,,,,X&3,<,,,,,,*<,,,<&X<<,,,,,,,,,,><>o,,%2,*2*",
",<,,,2>o@,<<,-,,<,<&<<<<*o;<,,,,<,,<,<><>.%*<,,-1>",
"******%..&***o#-**&O&***&X+************@%X=*****%*",
"$O%@&**=<;&+*;&$X O*&&&***;&&@&&X.%%@&%%&=&&&%%%%O",
"An3lIuVnnAZhJnnq=;GZAAnZZZZxCCnC35AB1LAHLZAAHVLvV2",
"yyp4yyyyqyyh77pq&=477rrwgqwyrr74<2g0p50pqyqyy000s0",
"qpy40y00yq0y0q20%$24777477774274*,p7y077qyyqyyqyy7",
"2722qqq6qqqqq72<*@2444<,<<262222**qqqq772222<<226>",
"4772626766624772*X*qq2*,,,<<,>><-&727<72222<<,<*>,",
",>,,<<<<2<22<222#$1&*,,,,,,,,>2,#%q77222,<<,,<**,,",
",,,,,,><,,,,<,,<%$,,,,,,,,,,,<,<&$2222<>><<>,,,,,,",
",,>&<,,,,<,<,,,<@$=<>,,,,,,,,,,<&@211><>2><<,,*,,,",
"&&>*&>>>>>>*--*>@X%>**>>->>->>:>%X*>>>>>>>*&*****>",
"XXXoXXXXXXXXOOoOoXoXoooXXXXXXXXXX@oXXXXXXX..OXXOXX",
"LLJJAlln2XfnflvnnL5Lxlll5o5l5;llGGlxvddddd*;G5lld1",
"ypqqyy4rq@uyyyypyy4pyyyq<%37<4,742424472472;447266",
"y4yyy4<pp@2qypq0yy4yqpq74@;4747,7744477477>&q74466",
"gqy7y<p77@17477772q777777#,44472*222427244>*747222",
"47772q<74@1q<47422722q424#*777442242,22,12*%4442,,",
"<12<,2,22o,472<<<2<,<2222@=272222>>>,,,,>2*%222,,,",
"<--<,*><1o@,<,,<,,,,,<<<<+=<2<<,,,2>>>>12>*$22>1,,",
"-<,<,><,2X1<,,,,,<,,,,<,2@*<,<,,,1>2,2,*>2*O1>2>,,",
">>>>*>>*>o#>>*>>>>*>>>*>>O@>*>>>>>>>->>>X-%X-->>>-",
"OOOOoOOOOXXOOOOOOOOOOOOOOXXOOOOOOOOOoOOOO oXooOOOo"
};
