/* XPM */
static char *e4618a9538a54372a3759c29321baf52CXcOeg13uA89TQAZ[] = {
/* columns rows colors chars-per-pixel */
"50 50 76 1 ",
"  c black",
". c #090A0A",
"X c #101113",
"o c #141618",
"O c #1F2429",
"+ c #252A34",
"@ c #28313B",
"# c #2A3343",
"$ c #2C3649",
"% c #313F61",
"& c #314064",
"* c #31426B",
"= c #314D6E",
"- c #304D73",
"; c #2F5177",
": c #2D507B",
"> c #0E3DBE",
", c #1C4D93",
"< c #114C9B",
"1 c #2A448B",
"2 c #2D5686",
"3 c #27548E",
"4 c #2A578D",
"5 c #2B588E",
"6 c #294591",
"7 c #215091",
"8 c #295791",
"9 c #2A5891",
"0 c #1542AF",
"q c #1B43AC",
"w c #1642B2",
"e c #2149A0",
"r c #002EC9",
"t c #023CCD",
"y c #002CD5",
"u c #002EDA",
"i c #0032D3",
"p c #0039D0",
"a c #0034DC",
"s c #003DDE",
"d c #003FF9",
"f c #0D4BC6",
"g c #1550C0",
"h c #0547D5",
"j c #0041DF",
"k c #2C6ECB",
"l c #2E71CE",
"z c #3174CF",
"x c #2E72D0",
"c c #3274D2",
"v c #3679D2",
"b c #387BD7",
"n c #3B7FDB",
"m c #0041F7",
"M c #004EFD",
"N c #0451FC",
"B c #0A55FA",
"V c #145EF9",
"C c #1B64F5",
"Z c #1A64F9",
"A c #266DEE",
"S c #216AF5",
"D c #286FF2",
"F c #2D74F4",
"G c #3077F3",
"H c #3178F4",
"J c #3E81DB",
"K c #4589E3",
"L c #4A8EE6",
"P c #5296EB",
"I c #569DEE",
"U c #589FED",
"Y c #569DF1",
"T c #599EF3",
"R c #58A0EF",
"E c #5BA1F4",
/* pixels */
"                                                  ",
"                                                  ",
"                                                  ",
"                                                  ",
"                                                  ",
"                                                  ",
"                                                  ",
"                                                  ",
"                                                  ",
"                                                  ",
"               :,,,,,,,,37,,,,,,,<#               ",
"              +9xcccccxbEYlccccccv9               ",
"              5EbccccclTIRPkcccccK2;              ",
"             =2RKxccckIYIIEKxccccPI4@             ",
"            O9IYPlcclLEIUYIEnzcclEYI4             ",
"            4IIIEcccJEIYIIIUEcccnTII2-            ",
"           =2IYYRnzcTTIIIIIYIYkcLIIII5+           ",
"          O9IIIYULkIIYIIIIIIUIKkTTIIIY4           ",
"          8TEEETTTLEIYTTTTTTTTELEEEEEE2-          ",
"          rdmmmmmdSDDAAAAAAAAAAVdmmmdma1          ",
"          .iNMNNMMVHGFFFFFFFFFHNMMNNMMt           ",
"           %aNMMMMMGFFFFFFFFFFDMMNMMNy.           ",
"            wjMMNMMDFFFFFFFFFHCMMMMNa%            ",
"             iMMMMMVGFFFFFFFFHMMNMMjq             ",
"             +aMMMMMGFFFFFFFFFMMNMMy              ",
"              1sMMMMDFFFFFFFFCMMMMa+              ",
"               pMNMMZFFFFFFFGNMMNs1               ",
"               XyMMMBGFFFFFFGMMMMp                ",
"                %aMNmFFFFFDGVMMMu.                ",
"                 0jNMCGFFFGGBMMa%                 ",
"                  yMMBGDFFFGMMjq                  ",
"                  #aMMGFFFFSMNy                   ",
"                   6sMCGFFGBMu+                   ",
"                    pMBGFFGMs6                    ",
"                    ouMHFFSMt                     ",
"                     *aSFGVyX                     ",
"                      >hGGa&                      ",
"                       yGgt                       ",
"                       $fp                        ",
"                        e$                        ",
"                                                  ",
"                                                  ",
"                                                  ",
"                                                  ",
"                                                  ",
"                                                  ",
"                                                  ",
"                                                  ",
"                                                  ",
"                                                  "
};
