/* XPM */
static char *_d3b8ee2f7374bc8f29fe55fa80f3799xVvoIijYUfOCpYoO[] = {
/* columns rows colors chars-per-pixel */
"50 50 170 2 ",
"   c #000000",
".  c #0B0B0C",
"X  c #0D0E12",
"o  c #020C1D",
"O  c #09111F",
"+  c #151414",
"@  c #191A19",
"#  c #0D1423",
"$  c #021429",
"%  c #071729",
"&  c #0B1A2B",
"*  c #111727",
"=  c #141C2B",
"-  c #181F2E",
";  c #19202F",
":  c #1C2436",
">  c #232323",
",  c #2A2B2B",
"<  c #202739",
"1  c #262C3D",
"2  c #322D36",
"3  c #343536",
"4  c #353639",
"5  c #393138",
"6  c #3B3C3E",
"7  c #533D3F",
"8  c #272E40",
"9  c #252E59",
"0  c #2A2F59",
"q  c #2B325C",
"w  c #383F54",
"e  c #32375E",
"r  c #243462",
"t  c #2B3662",
"y  c #2D3964",
"u  c #343B63",
"i  c #3A3F65",
"p  c #3D426A",
"a  c #454649",
"s  c #474B57",
"d  c #545559",
"f  c #5A5B5C",
"g  c #674644",
"h  c #794D45",
"j  c #474767",
"k  c #5C5666",
"l  c #464B73",
"z  c #4B5176",
"x  c #4E547A",
"c  c #565B7C",
"v  c #6D596B",
"b  c #745D6C",
"n  c #68696F",
"m  c #6B6D77",
"M  c #77797A",
"N  c #A74F3B",
"B  c #E55E3E",
"V  c #82534A",
"C  c #975E51",
"Z  c #A35242",
"A  c #A95645",
"S  c #93645D",
"D  c #A8635A",
"F  c #87646A",
"G  c #8D696E",
"H  c #936C6F",
"J  c #A66762",
"K  c #AB6A63",
"L  c #D9795C",
"P  c #E2654A",
"I  c #E4694D",
"U  c #EC6A4D",
"Y  c #E66D51",
"T  c #E77153",
"R  c #EF7954",
"E  c #EB7C5D",
"W  c #F27C56",
"Q  c #F17E59",
"!  c #E37F6B",
"~  c #EF805F",
"^  c #F1815D",
"/  c #FA835C",
"(  c #D78870",
")  c #E68263",
"_  c #EF8564",
"`  c #ED8C6E",
"'  c #F48664",
"]  c #F08866",
"[  c #FB8A66",
"{  c #F18B69",
"}  c #FF8D68",
"|  c #F7946D",
" . c #E29478",
".. c #F69772",
"X. c #F89973",
"o. c #FB9C72",
"O. c #F99F79",
"+. c #FAA27B",
"@. c #FFAA7D",
"#. c #626686",
"$. c #777A86",
"%. c #6B7093",
"&. c #7D8399",
"*. c #848793",
"=. c #949699",
"-. c #96989B",
";. c #AD878B",
":. c #9295A3",
">. c #9197AC",
",. c #9B9EAD",
"<. c #9FA3B4",
"1. c #AAACAF",
"2. c #BCA2AC",
"3. c #A4A9BC",
"4. c #AFB1B5",
"5. c #B6B9BF",
"6. c #D49E9E",
"7. c #EC9A84",
"8. c #FAAA86",
"9. c #E0A59B",
"0. c #F5B59B",
"q. c #DCACA7",
"w. c #DAAEAC",
"e. c #DBB2B1",
"r. c #F1C7B8",
"t. c #95A2C7",
"y. c #AEB2C2",
"u. c #BBBEC3",
"i. c #B1B6CC",
"p. c #B7BBCF",
"a. c #AEB6DC",
"s. c #B1B9DD",
"d. c #B5BDE2",
"f. c #BBC4E1",
"g. c #CAC6D7",
"h. c #CACDD2",
"j. c #C2C6DA",
"k. c #D1D3D6",
"l. c #EECEC3",
"z. c #EED4CD",
"x. c #F0D8CE",
"c. c #C6CBE5",
"v. c #CACFE7",
"b. c #CACFE8",
"n. c #CBD0E7",
"m. c #C6D2EE",
"M. c #CBD1EA",
"N. c #DBDFE7",
"B. c #D0D5EE",
"V. c #D3D8EB",
"C. c #C4CBF1",
"Z. c #C6D4F1",
"A. c #C7D8F5",
"S. c #D2D7F0",
"D. c #D5DBF3",
"F. c #D9DEF6",
"G. c #D9DEF9",
"H. c #DDE2FC",
"J. c #E8E5E7",
"K. c #E5EAF1",
"L. c #E9EDF3",
"P. c #E1E6FF",
"I. c #E4E9FF",
"U. c #ECF0F4",
"Y. c #E7F2FC",
"T. c #ECF3FA",
"R. c #F1F5FB",
"E. c #F5F9FE",
"W. c #FCFFFF",
"Q. c #FFFFFF",
/* pixels */
"                                              f u.B.n                                               ",
"                                          $.R.W.R.v.D.F.*.                                          ",
"                                      6 T.W.L.L.U.c.v.v.D.D.d                                       ",
"                                    =.W.U.L.L.L.U.v.v.v.v.n.G.3.                                    ",
"                                  h.W.L.L.L.L.L.U.c.v.v.v.v.v.D.j.X                                 ",
"                                U.E.L.L.L.L.L.L.U.c.v.v.v.v.v.v.B.H.+                               ",
"                            . K.R.L.L.L.L.L.L.L.U.c.v.v.v.v.v.v.v.M.D.@                             ",
"                            K.R.L.L.L.L.L.L.L.L.U.c.v.v.v.v.M.v.n.n.M.F.                            ",
"                          u.E.L.L.L.L.L.L.L.L.L.U.c.v.v.v.v.v.v.v.v.v.S.p.                          ",
"                        M W.L.L.L.L.L.L.L.L.L.L.L.c.v.v.v.v.v.v.v.v.v.v.G.*.                        ",
"                      @ W.L.L.L.L.L.L.L.L.L.L.L.U.c.v.v.v.v.v.v.v.v.v.v.v.H.,                       ",
"                      h.T.L.L.L.L.L.L.L.L.L.L.U.T.m.M.v.v.v.v.v.v.v.v.v.v.M.j.                      ",
"                    6 W.L.L.L.L.L.L.L.L.Y.Y.Y.J.x.w.g.M.Z.m.v.v.v.v.n.v.v.v.H.s                     ",
"                    h.T.L.L.L.L.L.L.Y.L.l.0.+.| o.W W ^ 7.w.g.A.m.v.v.v.v.v.M.j.                    ",
"                  , W.L.L.L.L.Y.L.z.8.O.o.o.O.O.+._ _ _ ~ Q Q ` e.v.Z.M.v.v.v.H.4                   ",
"                  =.E.L.L.L.Y.r.O.o.O.+.O.+.+.+.+._ _ _ _ _ _ ' Q ^ 9.n.m.v.v.S.:.                  ",
"                  R.U.U.R.l.o.o.O.+.+.O.+.+.O.+.+.) _ _ ] _ _ _ ] _ ^ W q.S.M.v.I.                  ",
"                ; W.T.K.;.o.O.O.+.+.+.+.+.+.+.+.+._ _ _ _ _ _ ] _ _ _ _ / S f.D.H.4                 ",
"                n W.N.q F @.+.+.+.+.+.+.+.O.+.+.+.E ] _ _ _ _ _ _ _ _ _ [ h o i.P.m                 ",
"                1.U.i q F @.+.+.O.+.+.O.+.+...O.8._ _ E _ ' _ _ _ ] _ _ [ V % * c.y.                ",
"                J.c u t G +.+.+.+.+.+.+.+.` E _ | T P P I ] _ _ _ _ ] _ } V & * 1 b.                ",
"                4.q i u G @.+.+.+.+.O.+.+.] _ _ _ P P P Y _ _ _ _ _ _ _ [ V & ; O >.+               ",
"              @ #.u i t F @.+.+.O.+.O.+.+.O.` _ _ P P T _ ] _ _ _ _ _ _ [ V & ; = s >               ",
"              + x u p u b @.+.+.+.+.+.+.+.+.+.+.X.E _ ] _ _ _ _ _ ] _ _ [ h & ; - 1 X               ",
"              . l i i u j @.+.+.O.+.+.O.+.+.O.+.8.~ _ _ _ _ _ _ _ _ _ ^ } 2 = ; - :                 ",
"              X l i i i t  .+.+.+.+.+.+.O.+.+.+.+.) _ _ _ _ _ _ _ ] ] ] ) & - ; - : .               ",
"              + z i i i u v @.+.+.+.+.+.+.+.O.+.+._ _ _ _ _ _ _ ] _ ] } g & ; ; - 8 +               ",
"                j i p i p q H @.+.+.+.O.+.+.+.+.+._ _ _ _ _ _ ] ^ ] } S $ - ; ; - <                 ",
"                s u i i i i t k  .+.8.@.+.+.+.+.+._ { ^ _ ' [ } } ) 7 % ; ; ; ; * a                 ",
"                > %.e p i i i u t j b H ( X.X.X...E Q ) _ L S g 5 $ & ; ; ; ; * w 3                 ",
"                  u.i u i i i i i u u r J ' _ _ _ P P I U Z $ * - - ; ; ; ; = = i.                  ",
"                  a R.e u i i i p i i t K ' _ _ _ P I I U A % = ; ; ; ; ; * # f.d                   ",
"                    k.R.c 0 e i p p e y K ' _ _ { P I I U A % ; ; ; ; ; O 8 c.g.                    ",
"                    , W.E.3.0 e e p p e K ' _ _ { P I I U A % ; ; ; # o $.D.I.w                     ",
"                      -.E.E.R.>.u 0 u y K ' ' _ { P I I U A & = # # m c.F.S.,.                      ",
"                      -.R.L.L.E.U.y.z 9 D / ' _ _ P I P U N o < &.c.F.M.b.B.,.                      ",
"                  , U.E.L.L.L.L.L.R.F.f.2.7.' W ^ B B B ! ;.t.C.D.M.v.v.v.v.B.H.4                   ",
"                > W.U.L.L.L.L.L.L.L.v.M.B.Y.L.J.r.6.h.m.A.d.d.s.v.v.v.v.v.v.v.M.I.3                 ",
"                U.R.L.L.L.L.L.L.L.L.v.v.n.L.L.L.Y.m.m.n.n.s.s.s.v.v.v.v.v.v.v.v.M.F..               ",
"              -.E.L.L.L.L.L.L.L.L.L.v.v.n.L.L.L.T.c.v.n.n.s.s.s.M.v.v.v.v.v.v.v.v.S.,.              ",
"              W.L.L.L.L.L.L.L.L.L.L.v.v.v.L.L.L.U.c.v.v.v.a.s.a.M.v.v.v.v.v.v.v.v.v.I..             ",
"            d W.L.L.L.L.L.L.L.L.L.L.V.c.V.L.L.L.U.c.v.v.n.f.a.f.v.v.v.v.v.v.v.v.v.v.D.k             ",
"            =.E.L.L.L.L.L.L.L.L.L.L.L.K.L.L.L.L.U.c.v.v.v.n.v.v.v.v.v.v.v.v.M.v.v.v.S.,.            ",
"            4.R.L.L.L.L.L.L.L.L.L.L.L.L.L.L.L.L.U.c.v.v.v.v.v.v.v.v.v.v.v.v.v.v.v.M.B.3.            ",
"            5.R.L.L.L.L.L.L.L.L.L.L.L.L.L.L.L.L.U.c.v.v.v.n.v.v.v.v.v.v.v.v.v.v.v.v.M.3.            ",
"            5.R.L.L.L.L.L.L.L.L.L.L.L.L.L.L.L.L.U.c.v.v.v.v.v.v.v.v.v.v.v.v.v.v.v.M.S.3.            ",
"            5.R.L.L.L.L.L.L.L.L.L.L.L.L.L.L.L.L.U.c.v.v.v.v.v.v.v.v.v.v.v.v.v.v.v.v.B.3.            ",
"            5.R.L.L.L.L.L.L.L.L.L.L.L.L.L.L.L.L.U.c.v.v.v.v.v.v.v.v.v.v.v.v.v.v.v.v.B.3.            ",
"            u.R.L.L.L.L.L.L.L.L.L.L.L.L.L.L.L.L.U.c.v.v.v.v.v.v.n.v.v.v.v.v.v.v.v.b.B.y.            ",
"            3 W.L.L.L.L.L.L.L.L.L.L.L.L.L.L.L.L.L.c.v.v.v.v.v.v.v.v.v.v.v.v.v.v.v.v.F.a             "
};
